<svg width="28" height="20" fill="none" xmlns="http://www.w3.org/2000/svg"><rect width="28" height="20" rx="2" fill="#040F89"/><path d="M10.667 20v-6.143l-9.053 6.106A2 2 0 010 18v-.165l6.674-4.502H0V6.667h6.674L0 2.165V2A2 2 0 011.614.037l9.053 6.106V0h6.666v6.143L26.386.037A2 2 0 0128 2v.165l-6.674 4.502H28v6.666h-6.674L28 17.835V18a2 2 0 01-1.614 1.963l-9.053-6.106V20h-6.666z" fill="#fff"/><path d="M0 8v4h12v8h4v-8h12V8H16V0h-4v8H0z" fill="#E7273E"/><path d="M.825 19.619a2.01 2.01 0 01-.474-.486l8.755-5.806a.333.333 0 01.368.556L.825 19.619zM27.904 18.614c-.07.217-.176.418-.31.595l-7.767-5.235a.333.333 0 11.372-.553l7.705 5.193zM27.627.837l-8.776 5.774a.333.333 0 01-.366-.557L27.142.358c.188.131.352.293.485.48zM.097 1.383C.167 1.166.274.966.41.789l7.783 5.245a.333.333 0 01-.373.553L.097 1.383z" fill="#DB1F35"/></svg>