<?xml version="1.0" standalone="no"?>
<!DOCTYPE svg PUBLIC "-//W3C//DTD SVG 20010904//EN"
 "http://www.w3.org/TR/2001/REC-SVG-20010904/DTD/svg10.dtd">
<svg version="1.0" xmlns="http://www.w3.org/2000/svg"
 width="700.000000pt" height="700.000000pt" viewBox="0 0 700.000000 700.000000"
 preserveAspectRatio="xMidYMid meet">
<metadata>
Created by potrace 1.11, written by Peter Selinger 2001-2013
</metadata>
<g transform="translate(0.000000,700.000000) scale(0.100000,-0.100000)"
fill="#000000" stroke="none">
<path d="M3357 6065 c-91 -25 -160 -67 -235 -141 -109 -108 -162 -238 -162
-395 l0 -57 -70 -47 c-208 -138 -377 -381 -440 -632 -10 -39 -16 -45 -68 -70
-81 -39 -190 -150 -229 -233 -101 -214 -58 -469 103 -626 l63 -61 -27 -64 -27
-64 -3 -1135 c-2 -844 0 -1149 9 -1190 38 -177 185 -336 364 -393 70 -22 71
-22 860 -22 738 0 794 1 850 18 144 45 263 140 328 265 69 132 67 78 67 1283
0 664 -4 1106 -10 1138 -5 28 -20 77 -32 108 l-23 56 66 66 c110 109 149 210
149 382 0 130 -22 209 -81 298 -49 74 -114 131 -193 171 l-60 30 -23 83 c-68
235 -236 466 -436 598 l-67 43 0 76 c0 239 -156 446 -389 514 -66 19 -215 20
-284 1z m212 -389 c60 -31 66 -52 71 -264 l5 -194 85 -35 c185 -76 331 -212
395 -365 l15 -38 -641 0 -640 0 6 23 c21 70 111 191 193 260 47 40 205 126
275 150 15 6 17 24 17 182 0 195 6 223 59 268 26 21 43 27 82 27 28 0 63 -7
78 -14z m918 -1348 c35 -44 20 -149 -27 -190 l-30 -28 -926 0 c-1015 0 -966
-3 -999 60 -17 33 -20 106 -5 144 l10 26 984 0 c775 0 986 -3 993 -12z m-201
-665 c68 -49 64 22 64 -1158 l0 -1067 -22 -39 c-14 -25 -37 -46 -64 -59 -41
-20 -56 -20 -780 -18 l-739 3 -33 23 c-64 46 -67 61 -67 317 l0 230 243 3 242
2 0 195 0 195 -245 0 -245 0 0 245 0 245 245 0 245 0 0 195 0 195 -242 2 -243
3 -3 160 c-4 206 2 256 36 296 50 61 19 59 832 56 l745 -2 31 -22z"/>
</g>
</svg>
