<svg width="194" height="39" viewBox="0 0 194 39" fill="none" xmlns="http://www.w3.org/2000/svg">
<path d="M3.36002 2.76L3.16003 20.48C3.16003 23.2267 3.24002 25.8267 3.40002 28.28C5.00002 28.3867 6.45336 28.44 7.76003 28.44L16.16 28.28C17.4667 28.28 18.12 28.6533 18.12 29.4C18.12 30.28 15.32 30.72 9.72003 30.72C8.36003 30.72 6.61336 30.6533 4.48002 30.52C2.34669 30.3867 1.05336 30.1733 0.600024 29.88C0.466691 27.0533 0.400024 22.44 0.400024 16.04L0.600024 1.96C1.29336 1.42667 1.85336 1.16 2.28002 1.16C3.00002 1.16 3.36002 1.69334 3.36002 2.76Z" fill="#C69822"/>
<path d="M23.6063 0.56C23.5796 1.17333 23.5663 1.85333 23.5663 2.6C23.5663 3.34667 23.6063 4.12 23.6863 4.92C23.3129 5.34667 22.8063 5.56 22.1663 5.56C21.3663 5.56 20.9663 4.92 20.9663 3.64C20.9663 3.58667 20.9663 3.38667 20.9663 3.04C20.9663 2.69333 20.9663 2.38667 20.9663 2.12C20.9929 1.82667 21.0463 1.49333 21.1263 1.12C21.3129 0.48 21.7263 0.16 22.3663 0.16C23.0063 0.16 23.4196 0.293334 23.6063 0.56ZM21.0463 20.16C21.0463 14.9333 21.3129 11.92 21.8463 11.12C22.0329 10.8267 22.2596 10.68 22.5263 10.68C22.7929 10.68 23.2329 10.8267 23.8463 11.12C23.7129 13.3867 23.6463 15.8533 23.6463 18.52C23.6463 18.52 23.6729 21.4667 23.7263 27.36C23.7263 28.1867 23.5396 28.7733 23.1663 29.12C22.8196 29.44 22.4863 29.6 22.1663 29.6C21.8729 29.6 21.5663 29.52 21.2463 29.36C21.1129 25.8933 21.0463 22.8267 21.0463 20.16Z" fill="#C69822"/>
<path d="M28.8141 13.24C27.6141 13.24 26.8008 12.9467 26.3741 12.36C26.3741 11.9333 26.5474 11.6 26.8941 11.36C27.2674 11.12 27.6674 10.9733 28.0941 10.92C28.5208 10.84 29.2141 10.7733 30.1741 10.72C30.2541 10 30.2941 9.08 30.2941 7.96C30.3208 6.81333 30.3474 5.84 30.3741 5.04C30.4541 2.93333 30.7741 1.64 31.3341 1.16C31.5741 0.946668 31.8274 0.840001 32.0941 0.840001C32.3874 0.840001 32.6408 0.866667 32.8541 0.92C32.9341 2.84 32.9741 4 32.9741 4.4L32.7341 10.4C32.7874 10.4267 32.9341 10.44 33.1741 10.44L36.0541 10.32C38.1341 10.32 39.1741 10.64 39.1741 11.28C39.1741 12.1867 38.8008 12.72 38.0541 12.88C37.7074 12.96 37.2941 13 36.8141 13C36.3608 13 35.7608 12.9467 35.0141 12.84C34.2941 12.7067 33.7741 12.64 33.4541 12.64C33.1341 12.64 32.9208 12.6533 32.8141 12.68C32.7341 13.4533 32.6941 14.2267 32.6941 15C32.6941 15.7467 32.7074 16.6933 32.7341 17.84C32.7874 18.96 32.8941 20.3067 33.0541 21.88C33.2408 23.4533 33.6274 24.8133 34.2141 25.96C34.8008 27.08 35.5474 27.64 36.4541 27.64C36.9074 27.64 37.4408 27.4667 38.0541 27.12C38.6674 26.7467 39.1341 26.56 39.4541 26.56C39.8008 26.56 40.0941 26.64 40.3341 26.8C40.6008 26.9333 40.7341 27.0933 40.7341 27.28C40.7341 27.84 40.1608 28.3867 39.0141 28.92C37.8941 29.4267 36.9341 29.68 36.1341 29.68C33.2008 29.68 31.3741 26.9067 30.6541 21.36C30.4408 19.76 30.2808 17.0133 30.1741 13.12C29.7474 13.2 29.2941 13.24 28.8141 13.24Z" fill="#C69822"/>
<path d="M43.15 13.24C41.95 13.24 41.1367 12.9467 40.71 12.36C40.71 11.9333 40.8834 11.6 41.23 11.36C41.6034 11.12 42.0034 10.9733 42.43 10.92C42.8567 10.84 43.55 10.7733 44.51 10.72C44.59 10 44.63 9.08 44.63 7.96C44.6567 6.81333 44.6834 5.84 44.71 5.04C44.79 2.93333 45.11 1.64 45.67 1.16C45.91 0.946668 46.1634 0.840001 46.43 0.840001C46.7234 0.840001 46.9767 0.866667 47.19 0.92C47.27 2.84 47.31 4 47.31 4.4L47.07 10.4C47.1234 10.4267 47.27 10.44 47.51 10.44L50.39 10.32C52.47 10.32 53.51 10.64 53.51 11.28C53.51 12.1867 53.1367 12.72 52.39 12.88C52.0434 12.96 51.63 13 51.15 13C50.6967 13 50.0967 12.9467 49.35 12.84C48.63 12.7067 48.11 12.64 47.79 12.64C47.47 12.64 47.2567 12.6533 47.15 12.68C47.07 13.4533 47.03 14.2267 47.03 15C47.03 15.7467 47.0434 16.6933 47.07 17.84C47.1234 18.96 47.23 20.3067 47.39 21.88C47.5767 23.4533 47.9634 24.8133 48.55 25.96C49.1367 27.08 49.8834 27.64 50.79 27.64C51.2434 27.64 51.7767 27.4667 52.39 27.12C53.0034 26.7467 53.47 26.56 53.79 26.56C54.1367 26.56 54.43 26.64 54.67 26.8C54.9367 26.9333 55.07 27.0933 55.07 27.28C55.07 27.84 54.4967 28.3867 53.35 28.92C52.23 29.4267 51.27 29.68 50.47 29.68C47.5367 29.68 45.71 26.9067 44.99 21.36C44.7767 19.76 44.6167 17.0133 44.51 13.12C44.0834 13.2 43.63 13.24 43.15 13.24Z" fill="#C69822"/>
<path d="M58.766 6.08C58.766 3.44 58.406 1.66667 57.686 0.760002C58.0326 0.253334 58.6326 0 59.486 0C59.646 0 59.8193 0.013334 60.006 0.0400019C60.6726 0.706668 61.006 2.64 61.006 5.84C61.006 7.57333 60.926 9.58667 60.766 11.88C60.446 15.88 60.286 18.8133 60.286 20.68C60.286 25.72 61.2593 28.24 63.206 28.24C63.206 28.24 63.6993 28.1467 64.686 27.96C64.926 27.96 65.126 28.0667 65.286 28.28C65.206 29.24 64.4193 29.72 62.926 29.72C61.4593 29.72 60.326 29.28 59.526 28.4C58.726 27.4933 58.2193 26.3733 58.006 25.04C57.8193 23.68 57.726 22.56 57.726 21.68C57.726 20.8 57.7393 19.84 57.766 18.8C57.7926 17.7333 57.9126 16.2133 58.126 14.24C58.5526 10.24 58.766 7.52 58.766 6.08Z" fill="#C69822"/>
<path d="M69.0172 21.88C68.9639 22.4133 68.9372 22.7733 68.9372 22.96C68.9372 24.56 69.4172 25.8 70.3772 26.68C71.3639 27.56 72.5239 28 73.8572 28C75.1905 28 76.2705 27.8133 77.0972 27.44C77.9505 27.0667 78.5639 26.6667 78.9372 26.24C79.8972 25.04 80.7772 24.44 81.5772 24.44C81.8705 24.44 82.2172 24.52 82.6172 24.68C82.3505 25.9867 81.3372 27.1867 79.5772 28.28C77.8439 29.3467 75.6572 29.88 73.0172 29.88C71.1505 29.88 69.5372 29.2933 68.1772 28.12C66.8439 26.92 66.1772 25.2933 66.1772 23.24C66.1772 21.1867 66.5772 19.2 67.3772 17.28C68.2039 15.3333 69.3772 13.68 70.8972 12.32C72.4439 10.9333 74.0039 10.24 75.5772 10.24C77.1772 10.24 78.4572 10.5733 79.4172 11.24C80.4039 11.88 80.8972 12.8267 80.8972 14.08C80.8972 16.4 79.8572 18.32 77.7772 19.84C75.7239 21.3333 73.5372 22.08 71.2172 22.08C70.6039 22.08 69.8705 22.0133 69.0172 21.88ZM72.0572 20.56C73.3105 20.56 74.4305 20.16 75.4172 19.36C76.4039 18.56 77.0972 17.72 77.4972 16.84C77.9239 15.96 78.1372 15.16 78.1372 14.44C78.1372 13.72 77.8572 13.0933 77.2972 12.56C76.7372 12 76.0839 11.72 75.3372 11.72C74.0039 11.72 72.7639 12.64 71.6172 14.48C70.4972 16.32 69.6972 18.2267 69.2172 20.2C70.3905 20.44 71.3372 20.56 72.0572 20.56Z" fill="#C69822"/>
<path d="M118.987 29.8C118.56 30.3867 117.947 30.68 117.147 30.68C116.934 30.68 116.72 30.6533 116.507 30.6C115.92 29.2667 115.48 27.3867 115.187 24.96C114.92 22.5067 114.72 20.8933 114.587 20.12C111.68 20.0133 108.774 19.96 105.867 19.96C102.96 19.96 100.36 20.08 98.0669 20.32C97.8269 21.4133 97.5602 23.0533 97.2669 25.24C97.0002 27.4 96.8002 28.8533 96.6669 29.6C95.7069 30.3733 94.8402 30.48 94.0669 29.92C94.1469 29.28 94.2669 28.2667 94.4269 26.88C94.5869 25.4933 94.7202 24.32 94.8269 23.36C94.9602 22.3733 95.1469 21.1333 95.3869 19.64C95.6269 18.1467 95.8536 16.8667 96.0669 15.8C96.3069 14.7067 96.6269 13.4933 97.0269 12.16C97.4269 10.8 97.8402 9.64 98.2669 8.68C98.6936 7.72 99.2136 6.74667 99.8269 5.76C100.467 4.77334 101.147 3.97334 101.867 3.36C103.52 2 105.32 1.32 107.267 1.32C109.214 1.32 110.827 2.06667 112.107 3.56C113.414 5.05334 114.4 7.01334 115.067 9.44C115.734 11.8667 116.267 14.3067 116.667 16.76C117.067 19.2133 117.454 21.72 117.827 24.28C118.2 26.84 118.587 28.68 118.987 29.8ZM111.547 7.6C111.04 6.29334 110.387 5.28 109.587 4.56C108.787 3.81333 107.8 3.44 106.627 3.44C105.454 3.44 104.32 4.01333 103.227 5.16C102.134 6.30667 101.267 7.73334 100.627 9.44C99.4802 12.6133 98.7602 15.5467 98.4669 18.24C101.134 17.9467 103.814 17.8 106.507 17.8C109.2 17.8 111.8 17.88 114.307 18.04C114.2 17.64 114 16.6933 113.707 15.2C113.414 13.7067 113.107 12.4 112.787 11.28C112.494 10.1333 112.08 8.90667 111.547 7.6Z" fill="#C69822"/>
<path d="M129.485 10C131.912 10 133.592 10.9867 134.525 12.96C135.032 14 135.445 14.9867 135.765 15.92C136.085 16.8533 136.298 18.1333 136.405 19.76C136.565 22.24 136.645 25.0667 136.645 28.24C136.645 31.3867 135.885 33.8933 134.365 35.76C132.872 37.6533 130.672 38.6 127.765 38.6C124.885 38.6 122.485 37.6667 120.565 35.8C121.098 35.2667 121.672 35 122.285 35C122.925 35 123.792 35.2667 124.885 35.8C126.005 36.36 127.192 36.64 128.445 36.64C129.698 36.64 130.738 36.3467 131.565 35.76C132.392 35.2 133.005 34.4 133.405 33.36C134.072 31.52 134.405 29.2533 134.405 26.56C134.405 26.16 134.365 24.68 134.285 22.12C133.565 24.3067 132.538 26.12 131.205 27.56C129.872 28.9733 128.365 29.68 126.685 29.68C125.005 29.68 123.765 28.9333 122.965 27.44C122.192 25.92 121.805 24.2 121.805 22.28C121.805 20.36 122.072 18.4933 122.605 16.68C123.138 14.84 124.005 13.2667 125.205 11.96C126.405 10.6533 127.832 10 129.485 10ZM125.245 16.08C124.898 17.2533 124.645 18.36 124.485 19.4C124.325 20.44 124.245 21.4933 124.245 22.56C124.245 23.6 124.458 24.76 124.885 26.04C125.338 27.32 125.992 27.96 126.845 27.96C128.525 27.96 130.018 26.7067 131.325 24.2C132.632 21.6667 133.285 19.12 133.285 16.56C133.285 15.68 132.872 14.6933 132.045 13.6C131.245 12.48 130.232 11.92 129.005 11.92C128.152 11.92 127.392 12.32 126.725 13.12C126.085 13.92 125.592 14.9067 125.245 16.08Z" fill="#C69822"/>
<path d="M157.558 28.88C157.078 29.3867 156.531 29.64 155.918 29.64C154.771 29.64 153.918 29.0267 153.358 27.8C152.798 26.5733 152.465 25.08 152.358 23.32C152.278 21.56 152.225 19.8 152.198 18.04C152.171 16.28 152.025 14.7867 151.758 13.56C151.518 12.3333 151.051 11.72 150.358 11.72C149.425 11.72 148.625 12.56 147.958 14.24C147.318 15.92 146.865 17.7867 146.598 19.84C145.851 25.5733 145.131 28.7867 144.438 29.48C143.958 29.72 143.545 29.84 143.198 29.84C142.851 29.84 142.558 29.8 142.318 29.72C141.758 27.2667 141.398 23.04 141.238 17.04C141.185 14.0533 141.131 12.12 141.078 11.24C141.638 10.8667 142.118 10.68 142.518 10.68C142.918 10.68 143.238 10.72 143.478 10.8C143.611 11.9467 143.678 14.2933 143.678 17.84C143.705 21.3867 143.731 23.4267 143.758 23.96C143.891 23.4 144.051 22.4933 144.238 21.24C144.451 19.9867 144.638 18.96 144.798 18.16C144.958 17.3333 145.211 16.3733 145.558 15.28C145.905 14.1867 146.291 13.32 146.718 12.68C147.145 12.0133 147.731 11.4533 148.478 11C149.225 10.52 150.065 10.28 150.998 10.28C152.251 10.28 153.158 10.8533 153.718 12C154.305 13.12 154.625 14.52 154.678 16.2C154.731 17.88 154.758 19.5867 154.758 21.32C154.785 23.0533 154.998 24.64 155.398 26.08C155.825 27.52 156.545 28.4533 157.558 28.88Z" fill="#C69822"/>
<path d="M162.181 21.88C162.128 22.4133 162.101 22.7733 162.101 22.96C162.101 24.56 162.581 25.8 163.541 26.68C164.528 27.56 165.688 28 167.021 28C168.355 28 169.435 27.8133 170.261 27.44C171.115 27.0667 171.728 26.6667 172.101 26.24C173.061 25.04 173.941 24.44 174.741 24.44C175.035 24.44 175.381 24.52 175.781 24.68C175.515 25.9867 174.501 27.1867 172.741 28.28C171.008 29.3467 168.821 29.88 166.181 29.88C164.315 29.88 162.701 29.2933 161.341 28.12C160.008 26.92 159.341 25.2933 159.341 23.24C159.341 21.1867 159.741 19.2 160.541 17.28C161.368 15.3333 162.541 13.68 164.061 12.32C165.608 10.9333 167.168 10.24 168.741 10.24C170.341 10.24 171.621 10.5733 172.581 11.24C173.568 11.88 174.061 12.8267 174.061 14.08C174.061 16.4 173.021 18.32 170.941 19.84C168.888 21.3333 166.701 22.08 164.381 22.08C163.768 22.08 163.035 22.0133 162.181 21.88ZM165.221 20.56C166.475 20.56 167.595 20.16 168.581 19.36C169.568 18.56 170.261 17.72 170.661 16.84C171.088 15.96 171.301 15.16 171.301 14.44C171.301 13.72 171.021 13.0933 170.461 12.56C169.901 12 169.248 11.72 168.501 11.72C167.168 11.72 165.928 12.64 164.781 14.48C163.661 16.32 162.861 18.2267 162.381 20.2C163.555 20.44 164.501 20.56 165.221 20.56Z" fill="#C69822"/>
<path d="M189.088 14C188.848 13.3867 188.394 12.9067 187.728 12.56C187.061 12.2133 186.234 12.04 185.248 12.04C184.261 12.04 183.328 12.3333 182.448 12.92C181.594 13.5067 181.168 14.2933 181.168 15.28C181.168 16.2667 181.568 17.0533 182.368 17.64C183.194 18.2 184.181 18.6267 185.328 18.92C186.501 19.2133 187.674 19.5333 188.848 19.88C190.021 20.2 191.008 20.7467 191.808 21.52C192.634 22.2667 193.048 23.2533 193.048 24.48C193.048 26.2667 192.301 27.6267 190.808 28.56C189.341 29.4933 187.568 29.96 185.488 29.96C184.261 29.96 182.648 29.6267 180.648 28.96C178.674 28.2933 177.688 27.4933 177.688 26.56C177.688 25.8667 178.274 25.52 179.448 25.52C179.794 25.52 180.248 25.7333 180.808 26.16C182.514 27.4133 184.261 28.04 186.048 28.04C187.008 28.04 187.834 27.88 188.528 27.56C189.808 26.9467 190.448 25.96 190.448 24.6C190.448 23.7733 190.034 23.1067 189.208 22.6C188.408 22.0933 187.421 21.6933 186.248 21.4C185.101 21.1067 183.941 20.7867 182.768 20.44C181.594 20.0933 180.594 19.52 179.768 18.72C178.968 17.8933 178.568 16.8533 178.568 15.6C178.568 13.9733 179.301 12.6533 180.768 11.64C182.234 10.6267 184.048 10.12 186.208 10.12C187.674 10.12 188.994 10.5067 190.168 11.28C191.368 12.0267 191.968 13.12 191.968 14.56C191.968 15.52 191.421 16 190.328 16C189.874 16 189.568 15.92 189.408 15.76C189.274 15.6 189.194 15.32 189.168 14.92C189.168 14.4933 189.141 14.1867 189.088 14Z" fill="#C69822"/>
</svg>
